# xmcd
#
# Track frame offsets:
#	150
#	12133
#	37345
#	60583
#	73500
#	105933
#	152225
#	178225
#	200118
#	230478
#	248548
#
# Disc length: 4002 seconds
#
# Revision: 1
# Processed by: cddbd v1.5.2PL0 Copyright (c) Steve Scherf et al.
# Submitted via: audiograbber 1.83.01
#
DISCID=920fa00b
DTITLE=stevie ray vaughan - cold vol 4
DYEAR=1900
DGENRE=
TTITLE0=house is rockin
TTITLE1=tight rope
TTITLE2=look at little sister
TTITLE3=let me love you
TTITLE4=texas flood
TTITLE5=riviera paradise
TTITLE6=wall of denial
TTITLE7=superstition
TTITLE8=cold shot
TTITLE9=crossfire
TTITLE10=voodoo chile slight return
EXTD=
EXTT0=
EXTT1=
EXTT2=
EXTT3=
EXTT4=
EXTT5=
EXTT6=
EXTT7=
EXTT8=
EXTT9=
EXTT10=
PLAYORDER=
